<svg xmlns="http://www.w3.org/2000/svg" xmlns:xlink="http://www.w3.org/1999/xlink" version="1.1" data-diagram-type="DESCRIPTION" style="width:1089px;height:252px;background:#FFFFFF;" width="1089px" height="252px" viewBox="0 0 1089 252" zoomAndPan="magnify" preserveAspectRatio="none" contentStyleType="text/css"><?plantuml 1.2026.8?><defs/><g font-family="sans-serif" lengthAdjust="spacing"><!--cluster Sistema de Ventas--><g class="cluster" data-qualified-name="Sistema de Ventas" id="ent0005" data-source-line="24"><rect x="220" y="4" width="706" height="224" fill="none" style="stroke:#181818;stroke-width:1;" rx="5" ry="5"/><text x="509.013" y="20.966" fill="#000" font-size="14" textLength="127.974" font-weight="700">Sistema de Ventas</text></g><!--entity Cliente--><g class="entity" data-qualified-name="Cliente" id="ent0001" data-source-line="15"><ellipse cx="165.5" cy="45.5" rx="16" ry="16" fill="#F1F1F1" style="stroke:#181818;stroke-width:0.5;"/><path d="M165.5,65.5 C169.5,65.5 172.5,65.5 176.5,61.5 C184.5,61.5 192.5,69.5 192.5,77.5 L192.5,81.5 C192.5,85.5 188.5,89.5 184.5,89.5 L146.5,89.5 C142.5,89.5 138.5,85.5 138.5,81.5 L138.5,77.5 C138.5,69.5 146.5,61.5 154.5,61.5 C158.5,65.5 161.5,65.5 165.5,65.5" style="stroke:#181818;stroke-width:0.5;" fill="#F1F1F1"/><text x="142.715" y="104.966" fill="#000" font-size="14" textLength="45.57">Cliente</text></g><!--entity Admin--><g class="entity" data-qualified-name="Admin" id="ent0002" data-source-line="16"><ellipse cx="53.39" cy="110.5" rx="16" ry="16" fill="#F1F1F1" style="stroke:#181818;stroke-width:0.5;"/><path d="M53.39,130.5 C57.39,130.5 60.39,130.5 64.39,126.5 C72.39,126.5 80.39,134.5 80.39,142.5 L80.39,146.5 C80.39,150.5 76.39,154.5 72.39,154.5 L34.39,154.5 C30.39,154.5 26.39,150.5 26.39,146.5 L26.39,142.5 C26.39,134.5 34.39,126.5 42.39,126.5 C46.39,130.5 49.39,130.5 53.39,130.5" style="stroke:#181818;stroke-width:0.5;" fill="#F1F1F1"/><text x="6" y="169.966" fill="#000" font-size="14" textLength="94.78">Administrador</text></g><!--entity PasarelaPago--><g class="entity" data-qualified-name="PasarelaPago" id="ent0003" data-source-line="19"><ellipse cx="1012.962" cy="72.068" rx="16" ry="16" fill="#F1F1F1" style="stroke:#181818;stroke-width:0.5;"/><path d="M1012.962,92.068 C1016.962,92.068 1019.962,92.068 1023.962,88.068 C1031.962,88.068 1039.962,96.068 1039.962,104.068 L1039.962,108.068 C1039.962,112.068 1035.962,116.068 1031.962,116.068 L993.962,116.068 C989.962,116.068 985.962,112.068 985.962,108.068 L985.962,104.068 C985.962,96.068 993.962,88.068 1001.962,88.068 C1005.962,92.068 1008.962,92.068 1012.962,92.068" style="stroke:#181818;stroke-width:0.5;" fill="#F1F1F1"/><text x="953" y="131.534" fill="#000" font-size="14" textLength="119.924">Pasarela de Pagos</text><text x="956.605" y="51.466" fill="#000" font-size="14" textLength="112.714" font-style="italic">«Sistema Externo»</text></g><!--entity CU_Catalogo--><g class="entity" data-qualified-name="Sistema de Ventas.CU_Catalogo" id="ent0006" data-source-line="26"><ellipse cx="343.519" cy="68.804" rx="82.019" ry="18.804" fill="#F1F1F1" style="stroke:#181818;stroke-width:0.5;"/><text x="280.498" y="74.838" fill="#000" font-size="14" textLength="126.042">Consultar Catalogo</text></g><!--entity CU_CrearPedido--><g class="entity" data-qualified-name="Sistema de Ventas.CU_CrearPedido" id="ent0007" data-source-line="27"><ellipse cx="609.436" cy="85.983" rx="63.436" ry="16.483" fill="#F1F1F1" style="stroke:#181818;stroke-width:0.5;"/><text x="566.701" y="92.017" fill="#000" font-size="14" textLength="85.47">Crear Pedido</text></g><!--entity CU_ProcesarPago--><g class="entity" data-qualified-name="Sistema de Ventas.CU_ProcesarPago" id="ent0008" data-source-line="28"><ellipse cx="839.98" cy="85.983" rx="69.98" ry="16.483" fill="#F1F1F1" style="stroke:#181818;stroke-width:0.5;"/><text x="792.618" y="92.017" fill="#000" font-size="14" textLength="94.724">Procesar Pago</text></g><!--entity CU_Cupon--><g class="entity" data-qualified-name="Sistema de Ventas.CU_Cupon" id="ent0009" data-source-line="29"><ellipse cx="343.532" cy="129.906" rx="107.532" ry="23.906" fill="#F1F1F1" style="stroke:#181818;stroke-width:0.5;"/><text x="250.502" y="135.94" fill="#000" font-size="14" textLength="186.059">Aplicar Cupon de Descuento</text></g><!--entity CU_Inventario--><g class="entity" data-qualified-name="Sistema de Ventas.CU_Inventario" id="ent0010" data-source-line="30"><ellipse cx="343.417" cy="192.083" rx="85.917" ry="19.583" fill="#F1F1F1" style="stroke:#181818;stroke-width:0.5;"/><text x="275.573" y="198.117" fill="#000" font-size="14" textLength="135.687">Gestionar Inventario</text></g><g class="link" data-entity-1="ent0002" data-entity-2="ent0001" id="lnk4" data-link-type="extension"><polygon points="137.835,84.757,119.286,88.748,125.39,99.079,137.835,84.757" fill="none" style="stroke:#181818;stroke-width:1;stroke-linejoin:miter;stroke-miterlimit:10;"/><path d="M101.15,106.434 C113.681,99.03 111.307,100.432 122.338,93.914" style="stroke:#181818;stroke-width:1;" fill="none"/></g><g class="link" data-entity-1="ent0007" data-entity-2="ent0008" id="lnk11" data-link-type="dependency"><polygon points="769.976,86,760.976,82,764.976,86,760.976,90,769.976,86" fill="#181818" style="stroke:#181818;stroke-width:1;stroke-linejoin:miter;stroke-miterlimit:10;"/><path d="M673.241,86 C703.232,86 734.212,86 764.976,86" style="stroke:#181818;stroke-width:1;stroke-dasharray:7,7;" fill="none"/><text x="693" y="80.897" fill="#000" font-size="13" textLength="57.577">«include»</text></g><g class="link" data-entity-1="ent0009" data-entity-2="ent0007" id="lnk12" data-link-type="dependency"><polygon points="545.937,96.427,536.402,93.961,541.005,97.249,537.717,101.852,545.937,96.427" fill="#181818" style="stroke:#181818;stroke-width:1;stroke-linejoin:miter;stroke-miterlimit:10;"/><path d="M451.118,112.23 C483.317,106.864 512.677,101.97 541.005,97.249" style="stroke:#181818;stroke-width:1;stroke-dasharray:7,7;" fill="none"/><text x="471" y="95.897" fill="#000" font-size="13" textLength="55.497">«extend»</text></g><g class="link" data-entity-1="ent0001" data-entity-2="ent0006" id="lnk13" data-link-type="association"><path d="M193.231,69 C211.502,69 236.768,69 261.322,69" style="stroke:#181818;stroke-width:1;" fill="none"/></g><g class="link" data-entity-1="ent0001" data-entity-2="ent0007" id="lnk14" data-link-type="association"><path d="M193.255,51.79 C201.505,47.382 210.838,43.253 220,41 C319.698,16.488 349.326,26.76 451,41 C489.724,46.424 532.287,59.003 563.393,69.487" style="stroke:#181818;stroke-width:1;" fill="none"/></g><g class="link" data-entity-1="ent0002" data-entity-2="ent0010" id="lnk15" data-link-type="association"><path d="M101.092,143.383 C143.201,151.863 206.229,164.556 257.324,174.847" style="stroke:#181818;stroke-width:1;" fill="none"/></g><g class="link" data-entity-1="ent0008" data-entity-2="ent0003" id="lnk16" data-link-type="association"><path d="M910.059,86 C924.241,86 939.051,86 952.846,86" style="stroke:#181818;stroke-width:1;" fill="none"/></g><?plantuml-src hLHDJnj13Btlhp1S2593AOSU48s40BLKq4QDwBKoEsQPCXaluzbI-l6JUgZu2VbZzSpk9fkeH_QGR3nl_EpdvspL0QivWiD7RYB8d29wBBR-7vOxwsiCE8SQopkiQ1OV7K6WKeyhHmE0tABX1-ihk44dmvF0ZJSb1qy1NkqF3h2C7DgC-432SogA7NZph8ycF7j_TZcz-7W8fnOhvKKm12SeBEdbIXZ6SBbuCetZ57XB4ktYoQVtAHbhM3J99KOA5bCIeSNVZ9nPYJH7WT7fx1mEzWzUxpv__OMZcmYH8TZgDeAnINpBFabrd0GaWVk6m7fRMlGmSZe7i3_k6ql1y6wHLORj4sV9Hze6hRTxxu-EpLnlImnwCsH0ZYmPGAZK4MAm32-1lgiIdZiYGrhFxOfcYeA1NDPuYXLBpjT7KmIEZZhXuAnDDPaagdUQoMiBeAK5Qir1KkHIO3p-DLcMNIpz1zjzAgNxh8UeV3yBq2T_D5evYi9Es4lZ8WOTV4J75RT2N7tfVs_W0ocs7VyIcM9jQ1qy3LoI93okylR155k77zVEbgcIfkRiibEIij7YLqpfPFrITYLxlNRklwL6THWzV1KfygKT-AHQbmfNRxHg3ktUOQmlNMFe4FZQsGfLRHrlMameULuxoc8DPCZNrcM0lRt9Pgzmg0FkSgV1jcJ9DDueLvtAGWVN-9MLo1jrRRTiDGlfNqJPr1fOicMHEfuXTQ9fiohBx-nLORLFrtPht75kl5_pqSNYZoS4MJmvQ_JRfZvXTlu1Rfow66Mtw3ocXbipnqPuu8JUdvk3MDMJsjDEMqSFTsaaN7FGhDrAlTWePKDOvHZkKV4F?></g></svg>