<svg xmlns="http://www.w3.org/2000/svg" xmlns:xlink="http://www.w3.org/1999/xlink" version="1.1" data-diagram-type="SEQUENCE" style="width:1677px;height:1505px;background:#FFFFFF;" width="1677px" height="1505px" viewBox="0 0 1677 1505" zoomAndPan="magnify" preserveAspectRatio="none" contentStyleType="text/css"><?plantuml 1.2026.8?><defs/><g font-family="sans-serif" lengthAdjust="spacing"><rect x="859.506" y="339.372" width="440.671" height="172.53" fill="none" style="stroke:#000;stroke-width:1.5;" rx="4" ry="4"/><rect x="878.506" y="436.49" width="396.671" height="61.412" fill="none" style="stroke:#000;stroke-width:1.5;" rx="4" ry="4"/><rect x="878.506" y="1040.922" width="631.807" height="114.548" fill="none" style="stroke:#000;stroke-width:1.5;" rx="4" ry="4"/><g><title>Cliente</title><rect x="32.285" y="89.068" width="8" height="1326.344" fill="#000" fill-opacity="0"/><line x1="35.785" y1="89.068" x2="35.785" y2="1415.412" style="stroke:#181818;stroke-width:0.5;stroke-dasharray:5,5;"/></g><g><title>..Boundary..</title><rect x="311.219" y="89.068" width="8" height="1316.344" fill="#000" fill-opacity="0"/><line x1="314.719" y1="89.068" x2="314.719" y2="1405.412" style="stroke:#181818;stroke-width:0.5;stroke-dasharray:5,5;"/></g><g><title></title><rect x="309.719" y="166.48" width="10" height="1230.932" fill="#FFF" style="stroke:#181818;stroke-width:1;"/></g><line x1="305.719" y1="1388.412" x2="323.719" y2="1406.412" style="stroke:#A80036;stroke-width:2;"/><line x1="305.719" y1="1406.412" x2="323.719" y2="1388.412" style="stroke:#A80036;stroke-width:2;"/><g><title>..Control..</title><rect x="574.02" y="89.068" width="8" height="1326.344" fill="#000" fill-opacity="0"/><line x1="577.52" y1="89.068" x2="577.52" y2="1415.412" style="stroke:#181818;stroke-width:0.5;stroke-dasharray:5,5;"/></g><g><title></title><rect x="572.52" y="198.186" width="10" height="1199.226" fill="#FFF" style="stroke:#181818;stroke-width:1;"/></g><g><title>..Control..</title><rect x="779.713" y="89.068" width="8" height="1326.344" fill="#000" fill-opacity="0"/><line x1="783.213" y1="89.068" x2="783.213" y2="1415.412" style="stroke:#181818;stroke-width:0.5;stroke-dasharray:5,5;"/></g><g><title></title><rect x="778.213" y="229.892" width="10" height="31.706" fill="#FFF" style="stroke:#181818;stroke-width:1;"/></g><g><title>..Sistema..</title><rect x="891.006" y="89.068" width="8" height="1326.344" fill="#000" fill-opacity="0"/><line x1="894.506" y1="89.068" x2="894.506" y2="1415.412" style="stroke:#181818;stroke-width:0.5;stroke-dasharray:5,5;"/></g><g><title></title><rect x="889.506" y="293.304" width="10" height="288.01" fill="#FFF" style="stroke:#181818;stroke-width:1;"/></g><g><title></title><rect x="889.506" y="785.55" width="10" height="471.038" fill="#FFF" style="stroke:#181818;stroke-width:1;"/></g><g><title>..Entity..</title><rect x="1061.559" y="89.068" width="8" height="1326.344" fill="#000" fill-opacity="0"/><line x1="1065.059" y1="89.068" x2="1065.059" y2="1415.412" style="stroke:#181818;stroke-width:0.5;stroke-dasharray:5,5;"/></g><g><title></title><rect x="1060.059" y="392.784" width="10" height="31.706" fill="#FFF" style="stroke:#181818;stroke-width:1;"/></g><g><title></title><rect x="1060.059" y="817.256" width="10" height="31.706" fill="#FFF" style="stroke:#181818;stroke-width:1;"/></g><g><title>..Entity..</title><rect x="1156.672" y="89.068" width="8" height="1326.344" fill="#000" fill-opacity="0"/><line x1="1160.172" y1="89.068" x2="1160.172" y2="1415.412" style="stroke:#181818;stroke-width:0.5;stroke-dasharray:5,5;"/></g><g><title></title><rect x="1155.172" y="880.668" width="10" height="31.706" fill="#FFF" style="stroke:#181818;stroke-width:1;"/></g><g><title>LTTE. Eventos</title><rect x="1255.676" y="301.304" width="8" height="288.01" fill="#000" fill-opacity="0"/><line x1="1259.176" y1="301.304" x2="1259.176" y2="589.314" style="stroke:#181818;stroke-width:0.5;stroke-dasharray:5,5;"/></g><line x1="1250.176" y1="572.314" x2="1268.176" y2="590.314" style="stroke:#A80036;stroke-width:2;"/><line x1="1250.176" y1="590.314" x2="1268.176" y2="572.314" style="stroke:#A80036;stroke-width:2;"/><g><title>..Entity..</title><rect x="1357.117" y="983.786" width="8" height="431.626" fill="#000" fill-opacity="0"/><line x1="1360.617" y1="983.786" x2="1360.617" y2="1415.412" style="stroke:#181818;stroke-width:0.5;stroke-dasharray:5,5;"/></g><g><title></title><rect x="1355.617" y="1094.334" width="10" height="31.706" fill="#FFF" style="stroke:#181818;stroke-width:1;"/></g><g><title>..Entity..</title><rect x="1490.813" y="1102.334" width="8" height="313.078" fill="#000" fill-opacity="0"/><line x1="1494.313" y1="1102.334" x2="1494.313" y2="1415.412" style="stroke:#181818;stroke-width:0.5;stroke-dasharray:5,5;"/></g><g><title>Entidad Bancaria</title><rect x="1604.199" y="89.068" width="8" height="1326.344" fill="#000" fill-opacity="0"/><line x1="1607.699" y1="89.068" x2="1607.699" y2="1415.412" style="stroke:#181818;stroke-width:0.5;stroke-dasharray:5,5;"/></g><g><title></title><rect x="1602.699" y="944.08" width="10" height="31.706" fill="#FFF" style="stroke:#181818;stroke-width:1;"/></g><text x="10" y="84.966" fill="#000" font-size="14" textLength="45.57">Cliente</text><ellipse cx="35.785" cy="18.5" rx="8" ry="8" fill="#E2E2F0" style="stroke:#181818;stroke-width:0.5;"/><path d="M35.785,26.5 L35.785,53.5 M22.785,34.5 L48.785,34.5 M35.785,53.5 L22.785,68.5 M35.785,53.5 L48.785,68.5" style="stroke:#181818;stroke-width:0.5;" fill="none"/><text x="274.71" y="65.898" fill="#000" font-size="14" textLength="74.018" font-style="italic">«Boundary»</text><text x="227.222" y="84.966" fill="#000" font-size="14" textLength="168.993">PantallaReservarEntradas</text><path d="M294.219,22.932 L294.219,46.932 M294.219,34.932 L311.219,34.932" style="stroke:#181818;stroke-width:0.5;" fill="none"/><ellipse cx="323.219" cy="34.932" rx="12" ry="12" fill="#E2E2F0" style="stroke:#181818;stroke-width:0.5;"/><text x="544.882" y="65.898" fill="#000" font-size="14" textLength="59.276" font-style="italic">«Control»</text><text x="500.167" y="84.966" fill="#000" font-size="14" textLength="148.707">CTRLReservarEntradas</text><ellipse cx="577.52" cy="34.932" rx="12" ry="12" fill="#E2E2F0" style="stroke:#181818;stroke-width:0.5;"/><polygon points="573.52,22.932,579.52,17.932,577.52,22.932,579.52,27.932,573.52,22.932" fill="#181818" style="stroke:#181818;stroke-width:1;stroke-linejoin:miter;stroke-miterlimit:10;"/><text x="750.575" y="65.898" fill="#000" font-size="14" textLength="59.276" font-style="italic">«Control»</text><text x="742.364" y="84.966" fill="#000" font-size="14" textLength="75.698">CTRLSesion</text><ellipse cx="783.213" cy="34.932" rx="12" ry="12" fill="#E2E2F0" style="stroke:#181818;stroke-width:0.5;"/><polygon points="779.213,22.932,785.213,17.932,783.213,22.932,785.213,27.932,779.213,22.932" fill="#181818" style="stroke:#181818;stroke-width:1;stroke-linejoin:miter;stroke-miterlimit:10;"/><rect x="856.545" y="35.932" width="75.922" height="52.136" fill="#E2E2F0" style="stroke:#181818;stroke-width:0.5;" rx="4" ry="4"/><text x="863.545" y="57.898" fill="#000" font-size="14" textLength="61.922" font-style="italic">«Sistema»</text><text x="868.557" y="76.966" fill="#000" font-size="14" textLength="51.898">Sistema</text><rect x="1017.074" y="35.932" width="95.97" height="52.136" fill="#E2E2F0" style="stroke:#181818;stroke-width:0.5;" rx="4" ry="4"/><text x="1041.007" y="57.898" fill="#000" font-size="14" textLength="48.104" font-style="italic">«Entity»</text><text x="1024.074" y="76.966" fill="#000" font-size="14" textLength="81.97">LTE: Eventos</text><rect x="1123.044" y="35.932" width="74.256" height="52.136" fill="#E2E2F0" style="stroke:#181818;stroke-width:0.5;" rx="4" ry="4"/><text x="1136.12" y="57.898" fill="#000" font-size="14" textLength="48.104" font-style="italic">«Entity»</text><text x="1130.044" y="76.966" fill="#000" font-size="14" textLength="60.256">e: Evento</text><text x="1549.078" y="84.966" fill="#000" font-size="14" textLength="111.244">Entidad Bancaria</text><ellipse cx="1607.699" cy="18.5" rx="8" ry="8" fill="#E2E2F0" style="stroke:#181818;stroke-width:0.5;"/><path d="M1607.699,26.5 L1607.699,53.5 M1594.699,34.5 L1620.699,34.5 M1607.699,53.5 L1594.699,68.5 M1607.699,53.5 L1620.699,68.5" style="stroke:#181818;stroke-width:0.5;" fill="none"/><text x="10" y="1430.378" fill="#000" font-size="14" textLength="45.57">Cliente</text><ellipse cx="35.785" cy="1442.98" rx="8" ry="8" fill="#E2E2F0" style="stroke:#181818;stroke-width:0.5;"/><path d="M35.785,1450.98 L35.785,1477.98 M22.785,1458.98 L48.785,1458.98 M35.785,1477.98 L22.785,1492.98 M35.785,1477.98 L48.785,1492.98" style="stroke:#181818;stroke-width:0.5;" fill="none"/><text x="274.71" y="1430.378" fill="#000" font-size="14" textLength="74.018" font-style="italic">«Boundary»</text><text x="227.222" y="1449.446" fill="#000" font-size="14" textLength="168.993">PantallaReservarEntradas</text><path d="M294.219,1457.548 L294.219,1481.548 M294.219,1469.548 L311.219,1469.548" style="stroke:#181818;stroke-width:0.5;" fill="none"/><ellipse cx="323.219" cy="1469.548" rx="12" ry="12" fill="#E2E2F0" style="stroke:#181818;stroke-width:0.5;"/><text x="544.882" y="1430.378" fill="#000" font-size="14" textLength="59.276" font-style="italic">«Control»</text><text x="500.167" y="1449.446" fill="#000" font-size="14" textLength="148.707">CTRLReservarEntradas</text><ellipse cx="577.52" cy="1469.548" rx="12" ry="12" fill="#E2E2F0" style="stroke:#181818;stroke-width:0.5;"/><polygon points="573.52,1457.548,579.52,1452.548,577.52,1457.548,579.52,1462.548,573.52,1457.548" fill="#181818" style="stroke:#181818;stroke-width:1;stroke-linejoin:miter;stroke-miterlimit:10;"/><text x="750.575" y="1430.378" fill="#000" font-size="14" textLength="59.276" font-style="italic">«Control»</text><text x="742.364" y="1449.446" fill="#000" font-size="14" textLength="75.698">CTRLSesion</text><ellipse cx="783.213" cy="1469.548" rx="12" ry="12" fill="#E2E2F0" style="stroke:#181818;stroke-width:0.5;"/><polygon points="779.213,1457.548,785.213,1452.548,783.213,1457.548,785.213,1462.548,779.213,1457.548" fill="#181818" style="stroke:#181818;stroke-width:1;stroke-linejoin:miter;stroke-miterlimit:10;"/><rect x="856.545" y="1415.412" width="75.922" height="52.136" fill="#E2E2F0" style="stroke:#181818;stroke-width:0.5;" rx="4" ry="4"/><text x="863.545" y="1437.378" fill="#000" font-size="14" textLength="61.922" font-style="italic">«Sistema»</text><text x="868.557" y="1456.446" fill="#000" font-size="14" textLength="51.898">Sistema</text><rect x="1017.074" y="1415.412" width="95.97" height="52.136" fill="#E2E2F0" style="stroke:#181818;stroke-width:0.5;" rx="4" ry="4"/><text x="1041.007" y="1437.378" fill="#000" font-size="14" textLength="48.104" font-style="italic">«Entity»</text><text x="1024.074" y="1456.446" fill="#000" font-size="14" textLength="81.97">LTE: Eventos</text><rect x="1123.044" y="1415.412" width="74.256" height="52.136" fill="#E2E2F0" style="stroke:#181818;stroke-width:0.5;" rx="4" ry="4"/><text x="1136.12" y="1437.378" fill="#000" font-size="14" textLength="48.104" font-style="italic">«Entity»</text><text x="1130.044" y="1456.446" fill="#000" font-size="14" textLength="60.256">e: Evento</text><rect x="1207.299" y="1415.412" width="103.754" height="33.068" fill="#E2E2F0" style="stroke:#181818;stroke-width:0.5;" rx="4" ry="4"/><text x="1214.299" y="1437.378" fill="#000" font-size="14" textLength="89.754">LTTE: Eventos</text><rect x="1321.053" y="1415.412" width="79.128" height="52.136" fill="#E2E2F0" style="stroke:#181818;stroke-width:0.5;" rx="4" ry="4"/><text x="1336.565" y="1437.378" fill="#000" font-size="14" textLength="48.104" font-style="italic">«Entity»</text><text x="1328.053" y="1456.446" fill="#000" font-size="14" textLength="65.128">r: Reserva</text><rect x="1449.548" y="1415.412" width="89.53" height="52.136" fill="#E2E2F0" style="stroke:#181818;stroke-width:0.5;" rx="4" ry="4"/><text x="1470.261" y="1437.378" fill="#000" font-size="14" textLength="48.104" font-style="italic">«Entity»</text><text x="1456.548" y="1456.446" fill="#000" font-size="14" textLength="75.53">en: Entrada</text><text x="1549.078" y="1430.378" fill="#000" font-size="14" textLength="111.244">Entidad Bancaria</text><ellipse cx="1607.699" cy="1442.98" rx="8" ry="8" fill="#E2E2F0" style="stroke:#181818;stroke-width:0.5;"/><path d="M1607.699,1450.98 L1607.699,1477.98 M1594.699,1458.98 L1620.699,1458.98 M1607.699,1477.98 L1594.699,1492.98 M1607.699,1477.98 L1620.699,1492.98" style="stroke:#181818;stroke-width:0.5;" fill="none"/><rect x="10" y="118.921" width="1656.321" height="3" fill="#EEE" style="stroke:#EEE;stroke-width:1;" rx="4" ry="4"/><line x1="10" y1="118.921" x2="1666.321" y2="118.921" style="stroke:#000;stroke-width:1;"/><line x1="10" y1="121.921" x2="1666.321" y2="121.921" style="stroke:#000;stroke-width:1;"/><rect x="569.548" y="107.068" width="537.224" height="25.706" fill="#EEE" style="stroke:#000;stroke-width:2;" rx="4" ry="4"/><text x="575.548" y="124.965" fill="#000" font-size="13" textLength="519.844" font-weight="700">Pasos 1 y 2: El cliente solicita reservar y el sistema muestra los eventos con cupo</text><polygon points="297.719,162.48,307.719,166.48,297.719,170.48,301.719,166.48" fill="#181818" style="stroke:#181818;stroke-width:1;stroke-linejoin:miter;stroke-miterlimit:10;"/><line x1="35.785" y1="166.48" x2="303.719" y2="166.48" style="stroke:#181818;stroke-width:1.5;"/><text x="80.187" y="160.671" fill="#000" font-size="13" font-weight="700">1</text><text x="91.623" y="160.671" fill="#000" font-size="13" textLength="173.693">seleccionarOpcionReservar()</text><polygon points="560.52,194.186,570.52,198.186,560.52,202.186,564.52,198.186" fill="#181818" style="stroke:#181818;stroke-width:1;stroke-linejoin:miter;stroke-miterlimit:10;"/><line x1="319.719" y1="198.186" x2="566.52" y2="198.186" style="stroke:#181818;stroke-width:1.5;"/><text x="393.881" y="192.377" fill="#000" font-size="13" font-weight="700">2</text><text x="405.317" y="192.377" fill="#000" font-size="13" textLength="93.041">iniciarReserva()</text><polygon points="766.213,225.892,776.213,229.892,766.213,233.892,770.213,229.892" fill="#181818" style="stroke:#181818;stroke-width:1;stroke-linejoin:miter;stroke-miterlimit:10;"/><line x1="582.52" y1="229.892" x2="772.213" y2="229.892" style="stroke:#181818;stroke-width:1.5;"/><text x="592.02" y="224.083" fill="#000" font-size="13" font-weight="700">3</text><text x="603.456" y="224.083" fill="#000" font-size="13" textLength="165.256">obtenerUsuarioLogueado()</text><polygon points="593.52,257.598,583.52,261.598,593.52,265.598,589.52,261.598" fill="#181818" style="stroke:#181818;stroke-width:1;stroke-linejoin:miter;stroke-miterlimit:10;"/><line x1="587.52" y1="261.598" x2="777.213" y2="261.598" style="stroke:#181818;stroke-width:1.5;stroke-dasharray:2,2;"/><text x="654.479" y="255.789" fill="#000" font-size="13" font-weight="700">4</text><text x="665.915" y="255.789" fill="#000" font-size="13" textLength="40.339">cliente</text><polygon points="877.506,289.304,887.506,293.304,877.506,297.304,881.506,293.304" fill="#181818" style="stroke:#181818;stroke-width:1;stroke-linejoin:miter;stroke-miterlimit:10;"/><line x1="582.52" y1="293.304" x2="883.506" y2="293.304" style="stroke:#181818;stroke-width:1.5;"/><text x="642.48" y="287.495" fill="#000" font-size="13" font-weight="700">5</text><text x="653.916" y="287.495" fill="#000" font-size="13" textLength="175.63">obtenerEventosDisponibles()</text><rect x="1207.299" y="301.304" width="103.754" height="33.068" fill="#E2E2F0" style="stroke:#181818;stroke-width:0.5;" rx="4" ry="4"/><text x="1214.299" y="323.27" fill="#000" font-size="14" textLength="89.754">LTTE: Eventos</text><polygon points="1195.299,321.01,1205.299,325.01,1195.299,329.01,1199.299,325.01" fill="#181818" style="stroke:#181818;stroke-width:1;stroke-linejoin:miter;stroke-miterlimit:10;"/><line x1="899.506" y1="325.01" x2="1201.299" y2="325.01" style="stroke:#181818;stroke-width:1.5;"/><text x="1024.655" y="319.201" fill="#000" font-size="13" font-weight="700">6</text><text x="1036.091" y="319.201" fill="#000" font-size="13" textLength="46.059">create()</text><path d="M863.506,339.372 L932.794,339.372 L932.794,349.078 L922.794,359.078 L859.506,359.078 L859.506,343.372 A4,4 0 0 1 863.506,339.372" style="stroke:#000;stroke-width:1.5;" fill="#EEE"/><rect x="859.506" y="339.372" width="440.671" height="172.53" fill="none" style="stroke:#000;stroke-width:1.5;" rx="4" ry="4"/><text x="874.506" y="354.269" fill="#000" font-size="13" textLength="28.288" font-weight="700">loop</text><text x="947.794" y="353.131" fill="#000" font-size="11" textLength="96.634" font-weight="700">[for each e in LTE]</text><polygon points="1048.059,388.784,1058.059,392.784,1048.059,396.784,1052.059,392.784" fill="#181818" style="stroke:#181818;stroke-width:1;stroke-linejoin:miter;stroke-miterlimit:10;"/><line x1="899.506" y1="392.784" x2="1054.059" y2="392.784" style="stroke:#181818;stroke-width:1.5;"/><text x="939.276" y="386.975" fill="#000" font-size="13" font-weight="700">7</text><text x="950.712" y="386.975" fill="#000" font-size="13" textLength="69.576">getEvento()</text><polygon points="910.506,420.49,900.506,424.49,910.506,428.49,906.506,424.49" fill="#181818" style="stroke:#181818;stroke-width:1;stroke-linejoin:miter;stroke-miterlimit:10;"/><line x1="904.506" y1="424.49" x2="1059.059" y2="424.49" style="stroke:#181818;stroke-width:1.5;stroke-dasharray:2,2;"/><text x="970.398" y="418.681" fill="#000" font-size="13" font-weight="700">8</text><text x="981.834" y="418.681" fill="#000" font-size="13">e</text><path d="M882.506,436.49 L945.424,436.49 L945.424,446.196 L935.424,456.196 L878.506,456.196 L878.506,440.49 A4,4 0 0 1 882.506,436.49" style="stroke:#000;stroke-width:1.5;" fill="#EEE"/><rect x="878.506" y="436.49" width="396.671" height="61.412" fill="none" style="stroke:#000;stroke-width:1.5;" rx="4" ry="4"/><text x="893.506" y="451.387" fill="#000" font-size="13" textLength="21.918" font-weight="700">opt</text><text x="960.424" y="450.249" fill="#000" font-size="11" textLength="120.009" font-weight="700">[e.cupoDisponible > 0]</text><polygon points="1247.176,485.902,1257.176,489.902,1247.176,493.902,1251.176,489.902" fill="#181818" style="stroke:#181818;stroke-width:1;stroke-linejoin:miter;stroke-miterlimit:10;"/><line x1="899.506" y1="489.902" x2="1253.176" y2="489.902" style="stroke:#181818;stroke-width:1.5;"/><text x="1054.415" y="484.093" fill="#000" font-size="13" font-weight="700">9</text><text x="1065.851" y="484.093" fill="#000" font-size="13" textLength="38.415">add(e)</text><polygon points="593.52,545.608,583.52,549.608,593.52,553.608,589.52,549.608" fill="#181818" style="stroke:#181818;stroke-width:1;stroke-linejoin:miter;stroke-miterlimit:10;"/><line x1="587.52" y1="549.608" x2="888.506" y2="549.608" style="stroke:#181818;stroke-width:1.5;stroke-dasharray:2,2;"/><text x="712.329" y="543.799" fill="#000" font-size="13" textLength="14.872" font-weight="700">10</text><text x="731.201" y="543.799" fill="#000" font-size="13" textLength="28.496">LTTE</text><polygon points="1247.176,577.314,1257.176,581.314,1247.176,585.314,1251.176,581.314" fill="#181818" style="stroke:#181818;stroke-width:1;stroke-linejoin:miter;stroke-miterlimit:10;"/><line x1="899.506" y1="581.314" x2="1253.176" y2="581.314" style="stroke:#181818;stroke-width:1.5;"/><text x="1042.949" y="575.505" fill="#000" font-size="13" textLength="14.872" font-weight="700">11</text><text x="1061.821" y="575.505" fill="#000" font-size="13" textLength="53.911">destroy()</text><polygon points="330.719,609.02,320.719,613.02,330.719,617.02,326.719,613.02" fill="#181818" style="stroke:#181818;stroke-width:1;stroke-linejoin:miter;stroke-miterlimit:10;"/><line x1="324.719" y1="613.02" x2="571.52" y2="613.02" style="stroke:#181818;stroke-width:1.5;"/><text x="370.059" y="607.211" fill="#000" font-size="13" textLength="14.872" font-weight="700">12</text><text x="388.931" y="607.211" fill="#000" font-size="13" textLength="133.25">mostrarEventos(LTTE)</text><polygon points="46.785,640.726,36.785,644.726,46.785,648.726,42.785,644.726" fill="#181818" style="stroke:#181818;stroke-width:1;stroke-linejoin:miter;stroke-miterlimit:10;"/><line x1="40.785" y1="644.726" x2="308.719" y2="644.726" style="stroke:#181818;stroke-width:1.5;stroke-dasharray:2,2;"/><text x="102.716" y="638.917" fill="#000" font-size="13" textLength="14.872" font-weight="700">13</text><text x="121.588" y="638.917" fill="#000" font-size="13" textLength="121.199">eventos disponibles</text><rect x="10" y="674.579" width="1656.321" height="3" fill="#EEE" style="stroke:#EEE;stroke-width:1;" rx="4" ry="4"/><line x1="10" y1="674.579" x2="1666.321" y2="674.579" style="stroke:#000;stroke-width:1;"/><line x1="10" y1="677.579" x2="1666.321" y2="677.579" style="stroke:#000;stroke-width:1;"/><rect x="544.692" y="662.726" width="586.936" height="25.706" fill="#EEE" style="stroke:#000;stroke-width:2;" rx="4" ry="4"/><text x="550.692" y="680.623" fill="#000" font-size="13" textLength="569.556" font-weight="700">Pasos 3 a 5: El cliente selecciona evento y cantidad; el sistema calcula el importe y cobra</text><polygon points="297.719,718.138,307.719,722.138,297.719,726.138,301.719,722.138" fill="#181818" style="stroke:#181818;stroke-width:1;stroke-linejoin:miter;stroke-miterlimit:10;"/><line x1="35.785" y1="722.138" x2="303.719" y2="722.138" style="stroke:#181818;stroke-width:1.5;"/><text x="47.785" y="716.329" fill="#000" font-size="13" textLength="14.872" font-weight="700">14</text><text x="66.657" y="716.329" fill="#000" font-size="13" textLength="231.062">seleccionarEvento(idEvento, cantidad)</text><polygon points="560.52,749.844,570.52,753.844,560.52,757.844,564.52,753.844" fill="#181818" style="stroke:#181818;stroke-width:1;stroke-linejoin:miter;stroke-miterlimit:10;"/><line x1="319.719" y1="753.844" x2="566.52" y2="753.844" style="stroke:#181818;stroke-width:1.5;"/><text x="329.219" y="748.035" fill="#000" font-size="13" textLength="14.872" font-weight="700">15</text><text x="348.091" y="748.035" fill="#000" font-size="13" textLength="214.929">tomarSeleccion(idEvento, cantidad)</text><polygon points="877.506,781.55,887.506,785.55,877.506,789.55,881.506,785.55" fill="#181818" style="stroke:#181818;stroke-width:1;stroke-linejoin:miter;stroke-miterlimit:10;"/><line x1="582.52" y1="785.55" x2="883.506" y2="785.55" style="stroke:#181818;stroke-width:1.5;"/><text x="592.02" y="779.741" fill="#000" font-size="13" textLength="14.872" font-weight="700">16</text><text x="610.892" y="779.741" fill="#000" font-size="13" textLength="269.113">registrarReserva(cliente, idEvento, cantidad)</text><polygon points="1048.059,813.256,1058.059,817.256,1048.059,821.256,1052.059,817.256" fill="#181818" style="stroke:#181818;stroke-width:1;stroke-linejoin:miter;stroke-miterlimit:10;"/><line x1="899.506" y1="817.256" x2="1054.059" y2="817.256" style="stroke:#181818;stroke-width:1.5;"/><text x="909.006" y="811.447" fill="#000" font-size="13" textLength="14.872" font-weight="700">17</text><text x="927.878" y="811.447" fill="#000" font-size="13" textLength="122.681">getEvento(idEvento)</text><polygon points="910.506,844.962,900.506,848.962,910.506,852.962,906.506,848.962" fill="#181818" style="stroke:#181818;stroke-width:1;stroke-linejoin:miter;stroke-miterlimit:10;"/><line x1="904.506" y1="848.962" x2="1059.059" y2="848.962" style="stroke:#181818;stroke-width:1.5;stroke-dasharray:2,2;"/><text x="966.68" y="843.153" fill="#000" font-size="13" textLength="14.872" font-weight="700">18</text><text x="985.552" y="843.153" fill="#000" font-size="13">e</text><polygon points="1143.172,876.668,1153.172,880.668,1143.172,884.668,1147.172,880.668" fill="#181818" style="stroke:#181818;stroke-width:1;stroke-linejoin:miter;stroke-miterlimit:10;"/><line x1="899.506" y1="880.668" x2="1149.172" y2="880.668" style="stroke:#181818;stroke-width:1.5;"/><text x="939.058" y="874.859" fill="#000" font-size="13" textLength="14.872" font-weight="700">19</text><text x="957.93" y="874.859" fill="#000" font-size="13" textLength="157.69">calcularImporte(cantidad)</text><polygon points="910.506,908.374,900.506,912.374,910.506,916.374,906.506,912.374" fill="#181818" style="stroke:#181818;stroke-width:1;stroke-linejoin:miter;stroke-miterlimit:10;"/><line x1="904.506" y1="912.374" x2="1154.172" y2="912.374" style="stroke:#181818;stroke-width:1.5;stroke-dasharray:2,2;"/><text x="993.521" y="906.565" fill="#000" font-size="13" textLength="14.872" font-weight="700">20</text><text x="1012.393" y="906.565" fill="#000" font-size="13" textLength="48.763">importe</text><line x1="1600.699" y1="944.08" x2="1590.699" y2="940.08" style="stroke:#181818;stroke-width:1.5;"/><line x1="1600.699" y1="944.08" x2="1590.699" y2="948.08" style="stroke:#181818;stroke-width:1.5;"/><line x1="899.506" y1="944.08" x2="1601.699" y2="944.08" style="stroke:#181818;stroke-width:1.5;"/><text x="1147.429" y="938.271" fill="#000" font-size="13" textLength="14.872" font-weight="700">21</text><text x="1166.301" y="938.271" fill="#000" font-size="13" textLength="188.474">procesarPago(cliente, importe)</text><polygon points="910.506,971.786,900.506,975.786,910.506,979.786,906.506,975.786" fill="#181818" style="stroke:#181818;stroke-width:1;stroke-linejoin:miter;stroke-miterlimit:10;"/><line x1="904.506" y1="975.786" x2="1601.699" y2="975.786" style="stroke:#181818;stroke-width:1.5;stroke-dasharray:2,2;"/><text x="1195.75" y="969.977" fill="#000" font-size="13" textLength="14.872" font-weight="700">22</text><text x="1214.623" y="969.977" fill="#000" font-size="13" textLength="91.832">pagoAprobado</text><rect x="1321.053" y="983.786" width="79.128" height="52.136" fill="#E2E2F0" style="stroke:#181818;stroke-width:0.5;" rx="4" ry="4"/><text x="1336.565" y="1005.752" fill="#000" font-size="14" textLength="48.104" font-style="italic">«Entity»</text><text x="1328.053" y="1024.82" fill="#000" font-size="14" textLength="65.128">r: Reserva</text><polygon points="1309.053,1003.492,1319.053,1007.492,1309.053,1011.492,1313.053,1007.492" fill="#181818" style="stroke:#181818;stroke-width:1;stroke-linejoin:miter;stroke-miterlimit:10;"/><line x1="899.506" y1="1007.492" x2="1315.053" y2="1007.492" style="stroke:#181818;stroke-width:1.5;"/><text x="1022.733" y="1001.683" fill="#000" font-size="13" textLength="14.872" font-weight="700">23</text><text x="1041.605" y="1001.683" fill="#000" font-size="13" textLength="156.221">create(cliente, e, importe)</text><path d="M882.506,1040.922 L951.794,1040.922 L951.794,1050.628 L941.794,1060.628 L878.506,1060.628 L878.506,1044.922 A4,4 0 0 1 882.506,1040.922" style="stroke:#000;stroke-width:1.5;" fill="#EEE"/><rect x="878.506" y="1040.922" width="631.807" height="114.548" fill="none" style="stroke:#000;stroke-width:1.5;" rx="4" ry="4"/><text x="893.506" y="1055.819" fill="#000" font-size="13" textLength="28.288" font-weight="700">loop</text><text x="966.794" y="1054.681" fill="#000" font-size="11" textLength="83.434" font-weight="700">[i = 1..cantidad]</text><polygon points="1343.617,1090.334,1353.617,1094.334,1343.617,1098.334,1347.617,1094.334" fill="#181818" style="stroke:#181818;stroke-width:1;stroke-linejoin:miter;stroke-miterlimit:10;"/><line x1="899.506" y1="1094.334" x2="1349.617" y2="1094.334" style="stroke:#181818;stroke-width:1.5;"/><text x="1065.95" y="1088.525" fill="#000" font-size="13" textLength="14.872" font-weight="700">24</text><text x="1084.822" y="1088.525" fill="#000" font-size="13" textLength="104.351">agregarEntrada()</text><rect x="1449.548" y="1102.334" width="89.53" height="52.136" fill="#E2E2F0" style="stroke:#181818;stroke-width:0.5;" rx="4" ry="4"/><text x="1470.261" y="1124.3" fill="#000" font-size="14" textLength="48.104" font-style="italic">«Entity»</text><text x="1456.548" y="1143.368" fill="#000" font-size="14" textLength="75.53">en: Entrada</text><polygon points="1437.548,1122.04,1447.548,1126.04,1437.548,1130.04,1441.548,1126.04" fill="#181818" style="stroke:#181818;stroke-width:1;stroke-linejoin:miter;stroke-miterlimit:10;"/><line x1="1365.617" y1="1126.04" x2="1443.548" y2="1126.04" style="stroke:#181818;stroke-width:1.5;"/><text x="1375.117" y="1120.231" fill="#000" font-size="13" textLength="14.872" font-weight="700">25</text><text x="1393.989" y="1120.231" fill="#000" font-size="13" textLength="46.059">create()</text><polygon points="1348.617,1189.176,1358.617,1193.176,1348.617,1197.176,1352.617,1193.176" fill="#181818" style="stroke:#181818;stroke-width:1;stroke-linejoin:miter;stroke-miterlimit:10;"/><line x1="899.506" y1="1193.176" x2="1354.617" y2="1193.176" style="stroke:#181818;stroke-width:1.5;"/><text x="1086.65" y="1187.367" fill="#000" font-size="13" textLength="14.872" font-weight="700">26</text><text x="1105.522" y="1187.367" fill="#000" font-size="13" textLength="67.951">confirmar()</text><polygon points="1148.172,1220.882,1158.172,1224.882,1148.172,1228.882,1152.172,1224.882" fill="#181818" style="stroke:#181818;stroke-width:1;stroke-linejoin:miter;stroke-miterlimit:10;"/><line x1="899.506" y1="1224.882" x2="1154.172" y2="1224.882" style="stroke:#181818;stroke-width:1.5;"/><text x="934.427" y="1219.073" fill="#000" font-size="13" textLength="14.872" font-weight="700">27</text><text x="953.299" y="1219.073" fill="#000" font-size="13" textLength="171.951">decrementarCupo(cantidad)</text><polygon points="593.52,1252.588,583.52,1256.588,593.52,1260.588,589.52,1256.588" fill="#181818" style="stroke:#181818;stroke-width:1;stroke-linejoin:miter;stroke-miterlimit:10;"/><line x1="587.52" y1="1256.588" x2="888.506" y2="1256.588" style="stroke:#181818;stroke-width:1.5;stroke-dasharray:2,2;"/><text x="723.893" y="1250.779" fill="#000" font-size="13" textLength="14.872" font-weight="700">28</text><text x="742.765" y="1250.779" fill="#000" font-size="13">r</text><rect x="10" y="1286.441" width="1656.321" height="3" fill="#EEE" style="stroke:#EEE;stroke-width:1;" rx="4" ry="4"/><line x1="10" y1="1286.441" x2="1666.321" y2="1286.441" style="stroke:#000;stroke-width:1;"/><line x1="10" y1="1289.441" x2="1666.321" y2="1289.441" style="stroke:#000;stroke-width:1;"/><rect x="671.937" y="1274.588" width="332.448" height="25.706" fill="#EEE" style="stroke:#000;stroke-width:2;" rx="4" ry="4"/><text x="677.937" y="1292.485" fill="#000" font-size="13" textLength="315.068" font-weight="700">Paso 6: El sistema informa la reserva confirmada</text><polygon points="330.719,1330,320.719,1334,330.719,1338,326.719,1334" fill="#181818" style="stroke:#181818;stroke-width:1;stroke-linejoin:miter;stroke-miterlimit:10;"/><line x1="324.719" y1="1334" x2="571.52" y2="1334" style="stroke:#181818;stroke-width:1.5;"/><text x="364.488" y="1328.191" fill="#000" font-size="13" textLength="14.872" font-weight="700">29</text><text x="383.36" y="1328.191" fill="#000" font-size="13" textLength="144.391">mostrarConfirmacion(r)</text><polygon points="46.785,1361.706,36.785,1365.706,46.785,1369.706,42.785,1365.706" fill="#181818" style="stroke:#181818;stroke-width:1;stroke-linejoin:miter;stroke-miterlimit:10;"/><line x1="40.785" y1="1365.706" x2="308.719" y2="1365.706" style="stroke:#181818;stroke-width:1.5;stroke-dasharray:2,2;"/><text x="103.828" y="1359.897" fill="#000" font-size="13" textLength="14.872" font-weight="700">30</text><text x="122.7" y="1359.897" fill="#000" font-size="13" textLength="118.976">reserva confirmada</text><polygon points="330.719,1393.412,320.719,1397.412,330.719,1401.412,326.719,1397.412" fill="#181818" style="stroke:#181818;stroke-width:1;stroke-linejoin:miter;stroke-miterlimit:10;"/><line x1="324.719" y1="1397.412" x2="571.52" y2="1397.412" style="stroke:#181818;stroke-width:1.5;"/><text x="409.728" y="1391.603" fill="#000" font-size="13" textLength="14.872" font-weight="700">31</text><text x="428.6" y="1391.603" fill="#000" font-size="13" textLength="53.911">destroy()</text><?plantuml-src hLVBRjj65DtpAswzYOpAHXz8KR2s0LjH0HTEOZZs1up8QsKIQeQT8PNeS_81NNNNhN-iPrxKY6QoYW5R8kS-pjnxxfdn3wqHwusWHknqtv7TS2UKA7wOVYtwJgj-is9Js8zIjSA83TdtejQVf5hJesWiPoj6zwgkj55iwFVSW__kMLLyQOp-TFzULXyLMqi_dxwSC7gD9R7coqQk5LMikeFaXcshbKrMLzpeJpuiTQRdedX1vz_r1m6NVorVtzwyfLTBkbl-kRnRlbbSNvQq45PJpVI0ZwCxjcosmj1ITKRKmXxHh18RgJInxPw-g5gOOyIwDLnfLSjAFlsh4AEHReE4EkDJLYZiARtHj1MDhF50hJRe2LLFNpgkZJX5Y4M_CWpN-xkRTsobLdEwkL_Ip4KsHjRwc922rhqmjV01H6Va2frqXiwoaROJrF46Yw9niEBFZzYFxOpUpOxdj7hwpw8ZY25LpP-ngJcr20NWn9zRDYuWzhYIlWnmT81TwWqhApxmFYwM5Qzr9U4XgWwG-3FQYk98jTLLskWxu6AGS2Riqp-gCbffuAWqSDfGiNt8MF2JM6_Q9UWk6IhsS4sYeKUfH7Fw_KbHX5qSnVuTaR1qwLuLApS2mkpew5QeJZIDIDJOCmF6W7TsTXLjBouAb0tW6qH4MoSztCBY0LwBO3fs2bmOJCFZWJa621IJBN3HKQorjqzrFpkBtyR6u5T9oossgWCOHxYpC-2JtMvipCdKMuQlNpLsX1o7lbyUsfWoTTiRnEzVpu-vYfKB2293CllOFVUCAQCheIfXP31t3xeepi_f5WCEaGArVa74Xgeuh5OtI8O9CcdeTyGDsLZ5JU-822c5CuUD-Qce-bQ3XuNd2PrSW0CbHA_X2dEXX7dRki_K-zcnGoct0WaVhWlm1Hw10oMc1W24YRQvQR0eYiYMw1F8K99UGMROF5XeWzGtUjqpPc_i7woBZ4KdMUvOXQBcAQSiSUJIa3Ks-PLq0YvN3TiySRGkYigmU_OqICH4j42Ki0W_ZFHTqhlILN_D7HG5mx_jkTcoUwLN7nZKsw78NaHmVXp88R5oIX64icYqRkdHIPEetXEZnexbXTEQ0nX0WLnXCm3YreTD90St7YTv2RW8CdXWwT_fjYC-TTpO5uOkwASY2Tsp6eYwdd58pAektE--K5cZfYiu27oHzDBRPT26JknRwPYwqOxLgOipvtNiQObrJ-boO7kzRt4sIB-Ie9U7WpIGFxgYLvK8G_b7FbALQAeUhS8hwGuj-C9Ihz3GRmnKx96imvVv4FjuD4wTtWZpBZbEEapnsl1Q-fgaEOpxcjDKXEVrVK5NpuxOadgLYDlsgkjnY3dEsXv1voW8A0kY5b-dPCgTPNHacw3ac8wudHmUxtwmOcTI2noGq88SGqXP9Yjp7Knc4ziFfaKy5muWfS0Pi6WDR9VvlQ545UBT8RdFqxM3zhU73E954FQIMgChjiBSYhNEEXPIPpZ3EU3_7g9iuNY9A2j8Pmur7Xoue6KNbdAONoTT_YedLbon0Txi8QwwsM5tQS3WH1sCtCgB7LyDQZXi8j-7bpD9vxXadwOkZCLi22JMuF9mtnYhMeBWNaPKqRB8RcAU1k5rfjCZsKkXl6YXKj-uFHvS6bLOic2vDvmkXrQFqcpysJd1pPg12i4xOHQGsuoRa_9f9ZKngXdzveKiwPDKE3ZyVq_fJZ20gRr4JKhf8ffuqJ5ZCNqUQAp8pwKS5uNHiOoxmFy0?></g></svg>